<!DOCTYPE svg PUBLIC "-//W3C//DTD SVG 1.1//EN" "http://www.w3.org/Graphics/SVG/1.1/DTD/svg11.dtd">
<!-- Uploaded to: SVG Repo, www.svgrepo.com, Transformed by: SVG Repo Mixer Tools -->
<svg fill="#b80000" height="800px" width="800px" version="1.2" baseProfile="tiny" id="Layer_1" xmlns="http://www.w3.org/2000/svg" xmlns:xlink="http://www.w3.org/1999/xlink" viewBox="0 0 256 256" xml:space="preserve" stroke="#b80000">
<g id="SVGRepo_bgCarrier" stroke-width="0"/>
<g id="SVGRepo_tracerCarrier" stroke-linecap="round" stroke-linejoin="round"/>
<g id="SVGRepo_iconCarrier"> <g> <circle cx="193.3" cy="113.5" r="16.8"/> <circle cx="172.6" cy="155.3" r="16.8"/> <path d="M145.8,175.2h-18.9h-18.9c-11.5,0-18.7,9.5-18.7,21.4v29.3h12.9V200c0-1.2,1-2,2-2c1.2,0,2,0.8,2,2v25.8h41.5V200 c0-1.2,1-2,2-2c1.2,0,2,1,2,2v25.8h12.9v-29.1C164.8,184.7,157.5,175.2,145.8,175.2z"/> <circle cx="150.5" cy="113.5" r="16.8"/> <path d="M199.9,155.3c0,9.3,7.5,16.8,16.8,16.8c9.3,0,16.8-7.5,16.8-16.8c0-9.3-7.5-16.8-16.8-16.8 C207.4,138.5,199.9,146,199.9,155.3z"/> <path d="M198.2,175.2c-11.5,0-18.7,9.5-18.7,21.4v29.3h12.9V200c0-1.2,1-2,2-2c1.2,0,2,0.8,2,2v25.8h41.5V200c0-1.2,1-2,2-2 c1.2,0,2,1,2,2v25.8h12.9v-29.1c0.2-12.1-7.1-21.6-18.7-21.6h-18.9H198.2z"/> <circle cx="40.6" cy="155.3" r="16.8"/> <path d="M15.6,225.8V200c0-1.2,1-2,2-2c1.2,0,2,0.8,2,2v25.8h41.5V200c0-1.2,1-2,2-2c1.2,0,2,1,2,2v25.8h12.9v-29.1 c0.2-12.1-7.1-21.6-18.7-21.6H40.4H21.5c-11.5,0-18.7,9.5-18.7,21.4v29.3H15.6z"/> <path d="M110.1,155.3c0,9.3,7.5,16.8,16.8,16.8c9.3,0,16.8-7.5,16.8-16.8c0-9.3-7.5-16.8-16.8-16.8 C117.6,138.5,110.1,146,110.1,155.3z"/> <circle cx="62.1" cy="113.5" r="16.8"/> <circle cx="107.5" cy="113.5" r="16.8"/> <circle cx="171.5" cy="77.6" r="16.8"/> <circle cx="83.1" cy="77.6" r="16.8"/> <circle cx="128.4" cy="77.6" r="16.8"/> <circle cx="84.9" cy="155.3" r="16.8"/> </g> </g>
</svg>