<?xml version="1.0" encoding="utf-8"?><!-- Uploaded to: SVG Repo, www.svgrepo.com, Generator: SVG Repo Mixer Tools -->
<svg width="800px" height="800px" viewBox="0 0 24 24" fill="none" xmlns="http://www.w3.org/2000/svg">
    <path fill-rule="evenodd" clip-rule="evenodd" d="M12.75 3.75H12V12H20.25V11.25C20.25 7.10786 16.8921 3.75 12.75 3.75ZM13.5 10.5V5.29642C16.214 5.63486 18.3651 7.78596 18.7036 10.5H13.5ZM4.5 13.5C4.5 10.4403 6.79027 7.91549 9.75 7.54642V14.25H16.4536C16.0845 17.2097 13.5597 19.5 10.5 19.5C7.18629 19.5 4.5 16.8137 4.5 13.5ZM10.5 6C6.35786 6 3 9.35786 3 13.5C3 17.6421 6.35786 21 10.5 21C14.6421 21 18 17.6421 18 13.5V12.75H11.25V6H10.5Z" fill="#438088"/>
</svg>